<svg version="1" xmlns="http://www.w3.org/2000/svg" width="682.667" height="682.667" viewBox="0 0 512.000000 512.000000"><path d="M242.5 22.1c-49 4.2-91.2 40.2-103.5 88.4-5.6 21.7-4.4 46.5 3.1 68.1 3.7 10.9 3.9 11.2 16 35.7 12.4 25 19.8 44.4 22.2 58.2.3 1.7 1.3 6.6 2.2 11 2.7 13.6 4.3 30.3 4.3 46 0 16.6-.8 24.8-4 37.5-7.3 30.1-26.9 48.2-53.5 49.8-15.3.8-26.7-3.5-37.3-14-12-12-16.8-29.6-12.5-46.3 4.5-17 18.2-30.5 35.5-34.8l5.5-1.4-.1-3.9c-.1-2.2-.4-9.5-.8-16.4-.3-6.9-.8-19.9-1.2-29-.8-20.1-.7-19.5-3-19.3-17.1 1.8-27.5 4.8-42.9 12.5-20 10-38.5 28-49.8 48.8-4.1 7.3-10.2 23.6-11.1 29.4-.4 2.1-.8 4.2-1.1 4.6-.7 1.2-1.9 15.5-1.8 22.7.3 37.3 18.8 74 48.8 96.8 6.5 5 22.4 13.1 32 16.4 6.7 2.3 20.5 5.5 27.9 6.6 5.9.8 23.7.8 29.1 0 7.2-1.1 20.7-4.5 24.4-6.1 12.3-5.3 16.4-7.5 24.1-12.5 21.7-14.1 35.9-29.3 60.7-64.5 6.2-8.7 12.3-17 13.5-18.4 1.3-1.4 3.4-3.9 4.7-5.5 13.6-17.7 37.5-38.5 56.3-49.1 10.9-6.2 18.6-9.1 34.3-13.1 1.1-.3 7.6-.7 14.5-.9 11.6-.3 13.1-.1 20.7 2.4 20.5 7 33.7 23.5 35 43.8.4 4.9.1 10.3-.7 13.5-5.9 25.2-31.2 41.6-56.2 36.4-7.5-1.6-17.3-6.4-21.9-10.9l-3.7-3.5-19.5 15.2c-10.8 8.4-22.7 17.7-26.6 20.7-3.9 3-7.1 6-7.1 6.6 0 2 15.7 16.1 24.6 22 20 13.3 42.3 19.6 66.9 18.9 6.6-.2 13.1-.6 14.5-.9 1.4-.3 4.9-1.1 7.8-1.7 28.6-5.9 56.8-25.8 73-51.4 19.8-31.5 23.1-72.2 8.4-106.5-14.9-35.2-42.2-60.1-80.1-73.2-7.3-2.5-21.5-6.3-27.6-7.3-1.1-.2-4.7-.9-8-1.4-6.6-1.2-9-1.5-24.5-3.1-73.8-7.7-124.4-33.3-143.7-72.5-10.2-20.7-6.9-42.7 8.8-60 12.9-14 30.5-19 48.1-13.5 23.6 7.3 38.6 32.6 33.2 56-.7 3-1 5.8-.6 6.2 1.9 1.8 62.5 26.9 63.2 26.2.9-1 4.6-13.1 5.6-18.4 1.7-9.6 2.2-16.6 1.9-27.5-.5-14.8-.9-17.7-5.2-31.5-3.3-10.7-10.8-25.5-17.3-34.2-25.1-33.3-64.4-51.1-105.5-47.7z"/></svg>